{
    "asset" : {
        "generator" : "Khronos glTF Blender I/O v1.6.16",
        "version" : "2.0"
    },
    "scene" : 0,
    "scenes" : [
        {
            "name" : "Scene",
            "nodes" : [
                0
            ]
        }
    ],
    "nodes" : [
        {
            "mesh" : 0,
            "name" : "Coin_HiRes",
            "scale" : [
                1.1206928491592407,
                1.1206928491592407,
                0.865980327129364
            ]
        }
    ],
    "materials" : [
        {
            "doubleSided" : true,
            "name" : "Coin_Material",
            "normalTexture" : {
                "index" : 0
            },
            "pbrMetallicRoughness" : {
                "baseColorTexture" : {
                    "index" : 1
                },
                "metallicRoughnessTexture" : {
                    "index" : 2
                }
            }
        }
    ],
    "meshes" : [
        {
            "name" : "Coin_HiRes",
            "primitives" : [
                {
                    "attributes" : {
                        "POSITION" : 0,
                        "NORMAL" : 1,
                        "TANGENT" : 2,
                        "TEXCOORD_0" : 3
                    },
                    "indices" : 4,
                    "material" : 0
                }
            ]
        }
    ],
    "textures" : [
        {
            "sampler" : 0,
            "source" : 0
        },
        {
            "sampler" : 0,
            "source" : 1
        },
        {
            "sampler" : 0,
            "source" : 2
        }
    ],
    "images" : [
        {
            "mimeType" : "image/png",
            "name" : "Normal",
            "uri" : "Normal.png"
        },
        {
            "mimeType" : "image/png",
            "name" : "BaseColor",
            "uri" : "BaseColor.png"
        },
        {
            "mimeType" : "image/png",
            "name" : "Metalness-Roughness",
            "uri" : "Metalness-Roughness.png"
        }
    ],
    "accessors" : [
        {
            "bufferView" : 0,
            "componentType" : 5126,
            "count" : 9356,
            "max" : [
                1.804114818572998,
                1.8041155338287354,
                0.16872382164001465
            ],
            "min" : [
                -1.804114818572998,
                -1.8041155338287354,
                -0.16871175169944763
            ],
            "type" : "VEC3"
        },
        {
            "bufferView" : 1,
            "componentType" : 5126,
            "count" : 9356,
            "type" : "VEC3"
        },
        {
            "bufferView" : 2,
            "componentType" : 5126,
            "count" : 9356,
            "type" : "VEC4"
        },
        {
            "bufferView" : 3,
            "componentType" : 5126,
            "count" : 9356,
            "type" : "VEC2"
        },
        {
            "bufferView" : 4,
            "componentType" : 5123,
            "count" : 54528,
            "type" : "SCALAR"
        }
    ],
    "bufferViews" : [
        {
            "buffer" : 0,
            "byteLength" : 112272,
            "byteOffset" : 0
        },
        {
            "buffer" : 0,
            "byteLength" : 112272,
            "byteOffset" : 112272
        },
        {
            "buffer" : 0,
            "byteLength" : 149696,
            "byteOffset" : 224544
        },
        {
            "buffer" : 0,
            "byteLength" : 74848,
            "byteOffset" : 374240
        },
        {
            "buffer" : 0,
            "byteLength" : 109056,
            "byteOffset" : 449088
        }
    ],
    "samplers" : [
        {
            "magFilter" : 9729,
            "minFilter" : 9987
        }
    ],
    "buffers" : [
        {
            "byteLength" : 558144,
            "uri" : "CustomCoin_HiRes.bin"
        }
    ]
}
